<svg xmlns="http://www.w3.org/2000/svg" viewBox="0 0 96 96">
  <defs>
    <linearGradient id="foxBody" x1="0" x2="1" y1="0" y2="1">
      <stop offset="0%" stop-color="#ffb36b"/>
      <stop offset="100%" stop-color="#ff7f58"/>
    </linearGradient>
    <linearGradient id="foxTail" x1="0" x2="1" y1="0" y2="1">
      <stop offset="0%" stop-color="#ffd08a"/>
      <stop offset="100%" stop-color="#ff9d76"/>
    </linearGradient>
  </defs>
  <ellipse cx="49" cy="58" rx="24" ry="18" fill="url(#foxBody)"/>
  <ellipse cx="70" cy="41" rx="17" ry="15" fill="url(#foxBody)"/>
  <path d="M24 57 C7 43 7 22 26 25 C40 27 40 47 31 58 Z" fill="url(#foxTail)"/>
  <path d="M20 52 C11 41 12 28 24 29 C32 30 34 43 28 51 Z" fill="#fff4ea"/>
  <path d="M57 31 L63 16 L71 30 Z" fill="#ff8b67"/>
  <path d="M66 30 L79 16 L82 33 Z" fill="#ff8b67"/>
  <path d="M61 30 L64 21 L69 29 Z" fill="#fff2e8"/>
  <path d="M71 29 L78 21 L79 31 Z" fill="#fff2e8"/>
  <ellipse cx="74" cy="48" rx="9" ry="7" fill="#fff2ea"/>
  <ellipse cx="69" cy="42" rx="2.6" ry="3.2" fill="#2f2a33"/>
  <ellipse cx="79" cy="42" rx="2.6" ry="3.2" fill="#2f2a33"/>
  <circle cx="69" cy="41.3" r="0.9" fill="#ffffff"/>
  <circle cx="79" cy="41.3" r="0.9" fill="#ffffff"/>
  <path d="M73 46 Q74 44 75 46 Q74 48 73 46 Z" fill="#5f4752"/>
  <path d="M71 50 Q74 53 77 50" stroke="#8e6574" stroke-width="1.8" fill="none" stroke-linecap="round"/>
  <circle cx="64" cy="47" r="2.7" fill="#ffb7c8" opacity="0.85"/>
  <circle cx="84" cy="47" r="2.7" fill="#ffb7c8" opacity="0.85"/>
  <ellipse cx="41" cy="66" rx="8" ry="5" fill="#fff3e6"/>
  <rect x="34" y="71" width="5.5" height="14" rx="2.75" fill="#8a5a4d"/>
  <rect x="44" y="71" width="5.5" height="14" rx="2.75" fill="#8a5a4d"/>
  <rect x="57" y="71" width="5.5" height="14" rx="2.75" fill="#8a5a4d"/>
  <rect x="67" y="71" width="5.5" height="14" rx="2.75" fill="#8a5a4d"/>
  <ellipse cx="48" cy="88" rx="25" ry="4" fill="#d9c0c7" opacity="0.35"/>
</svg>
